<mxfile host="app.diagrams.net" modified="2021-06-05T13:05:52.044Z" agent="5.0 (X11; Linux x86_64) AppleWebKit/537.36 (KHTML, like Gecko) Chrome/90.0.4430.210 Safari/537.36" etag="9bLzA-QFi8Uyxt73QpYO" version="14.7.6" type="github">
  <diagram id="8YFyxDMviqMH8j-MU21Z" name="Page-1">
    <mxGraphModel dx="563" dy="1168" grid="1" gridSize="10" guides="1" tooltips="1" connect="1" arrows="1" fold="1" page="1" pageScale="1" pageWidth="1300" pageHeight="1400" math="0" shadow="0">
      <root>
        <mxCell id="0" />
        <mxCell id="1" parent="0" />
        <mxCell id="DE4ma-u3AXPKQPY2vQ39-1" value="Start" style="ellipse;whiteSpace=wrap;html=1;" parent="1" vertex="1">
          <mxGeometry x="523" y="168" width="128" height="50" as="geometry" />
        </mxCell>
        <mxCell id="DE4ma-u3AXPKQPY2vQ39-2" value="Initialize UART&lt;br&gt;&amp;amp;&lt;br&gt;Initialize SPI as Master" style="rounded=0;whiteSpace=wrap;html=1;" parent="1" vertex="1">
          <mxGeometry x="252" y="308" width="140" height="90" as="geometry" />
        </mxCell>
        <mxCell id="DE4ma-u3AXPKQPY2vQ39-4" value="&lt;span&gt;- Initialize LCD&lt;br&gt;&lt;/span&gt;- Initialize LED 1 &amp;amp; 2&lt;span&gt;&lt;br&gt;&lt;/span&gt;&lt;span&gt;- Initialize SPI as Slave&lt;br&gt;&lt;/span&gt;" style="rounded=0;whiteSpace=wrap;html=1;" parent="1" vertex="1">
          <mxGeometry x="783" y="307" width="140" height="90" as="geometry" />
        </mxCell>
        <mxCell id="DE4ma-u3AXPKQPY2vQ39-7" value="Loop to&lt;br&gt;Transmit data to Slave and receive garbage data using SPI" style="rounded=0;whiteSpace=wrap;html=1;" parent="1" vertex="1">
          <mxGeometry x="252" y="438" width="140" height="80" as="geometry" />
        </mxCell>
        <mxCell id="DE4ma-u3AXPKQPY2vQ39-8" value="Loop to receive data From Master&lt;br&gt;&amp;amp; Send garbage data to Master" style="rounded=0;whiteSpace=wrap;html=1;" parent="1" vertex="1">
          <mxGeometry x="784" y="438" width="140" height="80" as="geometry" />
        </mxCell>
        <mxCell id="DE4ma-u3AXPKQPY2vQ39-9" value="Display Received&lt;br&gt;data to LCD" style="rhombus;whiteSpace=wrap;html=1;" parent="1" vertex="1">
          <mxGeometry x="787" y="828" width="135" height="130" as="geometry" />
        </mxCell>
        <mxCell id="DE4ma-u3AXPKQPY2vQ39-11" value="Do we receive Data using UART?" style="rhombus;whiteSpace=wrap;html=1;" parent="1" vertex="1">
          <mxGeometry x="256" y="558" width="130" height="125" as="geometry" />
        </mxCell>
        <mxCell id="DE4ma-u3AXPKQPY2vQ39-15" value="" style="endArrow=classic;html=1;entryX=0.5;entryY=0;entryDx=0;entryDy=0;exitX=0.5;exitY=1;exitDx=0;exitDy=0;" parent="1" source="DE4ma-u3AXPKQPY2vQ39-7" target="DE4ma-u3AXPKQPY2vQ39-11" edge="1">
          <mxGeometry width="50" height="50" relative="1" as="geometry">
            <mxPoint x="282" y="518" as="sourcePoint" />
            <mxPoint x="272" y="518" as="targetPoint" />
            <Array as="points" />
          </mxGeometry>
        </mxCell>
        <mxCell id="DE4ma-u3AXPKQPY2vQ39-18" value="" style="endArrow=classic;startArrow=classic;html=1;entryX=0;entryY=0.5;entryDx=0;entryDy=0;exitX=1;exitY=0.5;exitDx=0;exitDy=0;" parent="1" source="DE4ma-u3AXPKQPY2vQ39-7" target="DE4ma-u3AXPKQPY2vQ39-8" edge="1">
          <mxGeometry width="50" height="50" relative="1" as="geometry">
            <mxPoint x="382" y="448" as="sourcePoint" />
            <mxPoint x="422" y="398" as="targetPoint" />
          </mxGeometry>
        </mxCell>
        <mxCell id="eJmABFCnZfUZqNpGIrpa-2" value="" style="endArrow=classic;html=1;entryX=0.5;entryY=0;entryDx=0;entryDy=0;" parent="1" target="DE4ma-u3AXPKQPY2vQ39-4" edge="1">
          <mxGeometry width="50" height="50" relative="1" as="geometry">
            <mxPoint x="502" y="278" as="sourcePoint" />
            <mxPoint x="672" y="278" as="targetPoint" />
            <Array as="points">
              <mxPoint x="672" y="278" />
              <mxPoint x="853" y="278" />
            </Array>
          </mxGeometry>
        </mxCell>
        <mxCell id="eJmABFCnZfUZqNpGIrpa-3" value="" style="endArrow=none;html=1;entryX=0.5;entryY=1;entryDx=0;entryDy=0;" parent="1" target="DE4ma-u3AXPKQPY2vQ39-1" edge="1">
          <mxGeometry width="50" height="50" relative="1" as="geometry">
            <mxPoint x="587" y="278" as="sourcePoint" />
            <mxPoint x="502" y="218" as="targetPoint" />
            <Array as="points" />
          </mxGeometry>
        </mxCell>
        <mxCell id="eJmABFCnZfUZqNpGIrpa-4" value="" style="endArrow=classic;html=1;entryX=0.5;entryY=0;entryDx=0;entryDy=0;" parent="1" target="DE4ma-u3AXPKQPY2vQ39-2" edge="1">
          <mxGeometry width="50" height="50" relative="1" as="geometry">
            <mxPoint x="502" y="278" as="sourcePoint" />
            <mxPoint x="612" y="348" as="targetPoint" />
            <Array as="points">
              <mxPoint x="322" y="278" />
            </Array>
          </mxGeometry>
        </mxCell>
        <mxCell id="eJmABFCnZfUZqNpGIrpa-5" value="" style="endArrow=classic;html=1;exitX=0.5;exitY=1;exitDx=0;exitDy=0;entryX=0.5;entryY=0;entryDx=0;entryDy=0;" parent="1" source="DE4ma-u3AXPKQPY2vQ39-2" target="DE4ma-u3AXPKQPY2vQ39-7" edge="1">
          <mxGeometry width="50" height="50" relative="1" as="geometry">
            <mxPoint x="562" y="398" as="sourcePoint" />
            <mxPoint x="612" y="348" as="targetPoint" />
          </mxGeometry>
        </mxCell>
        <mxCell id="eJmABFCnZfUZqNpGIrpa-6" value="" style="endArrow=classic;html=1;exitX=0.5;exitY=1;exitDx=0;exitDy=0;entryX=0.5;entryY=0;entryDx=0;entryDy=0;" parent="1" source="DE4ma-u3AXPKQPY2vQ39-4" target="DE4ma-u3AXPKQPY2vQ39-8" edge="1">
          <mxGeometry width="50" height="50" relative="1" as="geometry">
            <mxPoint x="562" y="638" as="sourcePoint" />
            <mxPoint x="612" y="588" as="targetPoint" />
          </mxGeometry>
        </mxCell>
        <mxCell id="eJmABFCnZfUZqNpGIrpa-7" value="Check if LCD has 16 Character" style="rhombus;whiteSpace=wrap;html=1;" parent="1" vertex="1">
          <mxGeometry x="787" y="998" width="135" height="130" as="geometry" />
        </mxCell>
        <mxCell id="eJmABFCnZfUZqNpGIrpa-8" value="" style="endArrow=classic;html=1;exitX=0.5;exitY=1;exitDx=0;exitDy=0;entryX=0.5;entryY=0;entryDx=0;entryDy=0;" parent="1" source="DE4ma-u3AXPKQPY2vQ39-9" target="eJmABFCnZfUZqNpGIrpa-7" edge="1">
          <mxGeometry width="50" height="50" relative="1" as="geometry">
            <mxPoint x="762" y="998" as="sourcePoint" />
            <mxPoint x="812" y="948" as="targetPoint" />
          </mxGeometry>
        </mxCell>
        <mxCell id="eJmABFCnZfUZqNpGIrpa-11" value="" style="endArrow=classic;html=1;exitX=0;exitY=0.5;exitDx=0;exitDy=0;entryX=0.5;entryY=0;entryDx=0;entryDy=0;" parent="1" source="eJmABFCnZfUZqNpGIrpa-7" target="eJmABFCnZfUZqNpGIrpa-13" edge="1">
          <mxGeometry width="50" height="50" relative="1" as="geometry">
            <mxPoint x="829" y="998" as="sourcePoint" />
            <mxPoint x="729" y="1118" as="targetPoint" />
            <Array as="points">
              <mxPoint x="729" y="1063" />
            </Array>
          </mxGeometry>
        </mxCell>
        <mxCell id="eJmABFCnZfUZqNpGIrpa-12" value="" style="endArrow=classic;html=1;exitX=1;exitY=0.5;exitDx=0;exitDy=0;entryX=0.5;entryY=0;entryDx=0;entryDy=0;" parent="1" source="eJmABFCnZfUZqNpGIrpa-7" target="eJmABFCnZfUZqNpGIrpa-14" edge="1">
          <mxGeometry width="50" height="50" relative="1" as="geometry">
            <mxPoint x="797" y="1073" as="sourcePoint" />
            <mxPoint x="969" y="1118" as="targetPoint" />
            <Array as="points">
              <mxPoint x="969" y="1063" />
            </Array>
          </mxGeometry>
        </mxCell>
        <mxCell id="eJmABFCnZfUZqNpGIrpa-13" value="If NO&lt;br&gt;Do nothing" style="rounded=1;whiteSpace=wrap;html=1;" parent="1" vertex="1">
          <mxGeometry x="688" y="1128" width="82" height="40" as="geometry" />
        </mxCell>
        <mxCell id="eJmABFCnZfUZqNpGIrpa-14" value="If YES&lt;br&gt;Clear Display" style="rounded=1;whiteSpace=wrap;html=1;" parent="1" vertex="1">
          <mxGeometry x="928" y="1128" width="82" height="40" as="geometry" />
        </mxCell>
        <mxCell id="eJmABFCnZfUZqNpGIrpa-18" value="If it is &quot;1&quot;&lt;br&gt;Toggle LED_1" style="rhombus;whiteSpace=wrap;html=1;" parent="1" vertex="1">
          <mxGeometry x="654" y="668" width="110" height="100" as="geometry" />
        </mxCell>
        <mxCell id="eJmABFCnZfUZqNpGIrpa-19" value="Check Recieved&lt;br&gt;Data" style="rhombus;whiteSpace=wrap;html=1;" parent="1" vertex="1">
          <mxGeometry x="799" y="557" width="110" height="100" as="geometry" />
        </mxCell>
        <mxCell id="eJmABFCnZfUZqNpGIrpa-20" value="If it is &quot;2&quot;&lt;br&gt;Toggle LED_2" style="rhombus;whiteSpace=wrap;html=1;" parent="1" vertex="1">
          <mxGeometry x="799" y="668" width="110" height="100" as="geometry" />
        </mxCell>
        <mxCell id="eJmABFCnZfUZqNpGIrpa-22" value="" style="endArrow=classic;html=1;entryX=0.5;entryY=0;entryDx=0;entryDy=0;exitX=0;exitY=0.5;exitDx=0;exitDy=0;" parent="1" source="eJmABFCnZfUZqNpGIrpa-19" target="eJmABFCnZfUZqNpGIrpa-18" edge="1">
          <mxGeometry width="50" height="50" relative="1" as="geometry">
            <mxPoint x="792" y="608" as="sourcePoint" />
            <mxPoint x="707" y="628" as="targetPoint" />
            <Array as="points">
              <mxPoint x="709" y="608" />
            </Array>
          </mxGeometry>
        </mxCell>
        <mxCell id="eJmABFCnZfUZqNpGIrpa-24" value="If Data is&lt;br&gt;received from&lt;br&gt;UART" style="rhombus;whiteSpace=wrap;html=1;" parent="1" vertex="1">
          <mxGeometry x="379" y="679" width="106" height="99" as="geometry" />
        </mxCell>
        <mxCell id="eJmABFCnZfUZqNpGIrpa-25" value="If no Data&lt;br&gt;received from UART" style="rhombus;whiteSpace=wrap;html=1;" parent="1" vertex="1">
          <mxGeometry x="147" y="679" width="110" height="100" as="geometry" />
        </mxCell>
        <mxCell id="eJmABFCnZfUZqNpGIrpa-26" value="&lt;br&gt;Send Data Through SPI to Slave" style="rhombus;whiteSpace=wrap;html=1;" parent="1" vertex="1">
          <mxGeometry x="378" y="821" width="106" height="99" as="geometry" />
        </mxCell>
        <mxCell id="eJmABFCnZfUZqNpGIrpa-27" value="" style="endArrow=classic;html=1;exitX=0.5;exitY=1;exitDx=0;exitDy=0;entryX=0.5;entryY=0;entryDx=0;entryDy=0;" parent="1" source="eJmABFCnZfUZqNpGIrpa-24" target="eJmABFCnZfUZqNpGIrpa-26" edge="1">
          <mxGeometry width="50" height="50" relative="1" as="geometry">
            <mxPoint x="821" y="647" as="sourcePoint" />
            <mxPoint x="432" y="797" as="targetPoint" />
          </mxGeometry>
        </mxCell>
        <mxCell id="eJmABFCnZfUZqNpGIrpa-30" value="" style="endArrow=classic;html=1;exitX=0;exitY=0.5;exitDx=0;exitDy=0;entryX=0;entryY=0.75;entryDx=0;entryDy=0;" parent="1" edge="1">
          <mxGeometry width="50" height="50" relative="1" as="geometry">
            <mxPoint x="147" y="729" as="sourcePoint" />
            <mxPoint x="252" y="498" as="targetPoint" />
            <Array as="points">
              <mxPoint x="147" y="498" />
            </Array>
          </mxGeometry>
        </mxCell>
        <mxCell id="eJmABFCnZfUZqNpGIrpa-31" value="" style="endArrow=classic;html=1;exitX=0;exitY=0.5;exitDx=0;exitDy=0;entryX=0.5;entryY=0;entryDx=0;entryDy=0;" parent="1" source="DE4ma-u3AXPKQPY2vQ39-11" target="eJmABFCnZfUZqNpGIrpa-25" edge="1">
          <mxGeometry width="50" height="50" relative="1" as="geometry">
            <mxPoint x="732" y="648" as="sourcePoint" />
            <mxPoint x="202" y="658" as="targetPoint" />
            <Array as="points">
              <mxPoint x="202" y="621" />
            </Array>
          </mxGeometry>
        </mxCell>
        <mxCell id="eJmABFCnZfUZqNpGIrpa-32" value="" style="endArrow=classic;html=1;exitX=1;exitY=0.5;exitDx=0;exitDy=0;entryX=0.5;entryY=0.091;entryDx=0;entryDy=0;entryPerimeter=0;" parent="1" source="DE4ma-u3AXPKQPY2vQ39-11" target="eJmABFCnZfUZqNpGIrpa-24" edge="1">
          <mxGeometry width="50" height="50" relative="1" as="geometry">
            <mxPoint x="732" y="648" as="sourcePoint" />
            <mxPoint x="482" y="658" as="targetPoint" />
            <Array as="points">
              <mxPoint x="432" y="621" />
            </Array>
          </mxGeometry>
        </mxCell>
        <mxCell id="eJmABFCnZfUZqNpGIrpa-33" value="" style="endArrow=classic;html=1;exitX=1;exitY=0.5;exitDx=0;exitDy=0;entryX=1;entryY=0.75;entryDx=0;entryDy=0;" parent="1" source="eJmABFCnZfUZqNpGIrpa-26" target="DE4ma-u3AXPKQPY2vQ39-7" edge="1">
          <mxGeometry width="50" height="50" relative="1" as="geometry">
            <mxPoint x="732" y="648" as="sourcePoint" />
            <mxPoint x="782" y="598" as="targetPoint" />
            <Array as="points">
              <mxPoint x="522" y="871" />
              <mxPoint x="522" y="498" />
            </Array>
          </mxGeometry>
        </mxCell>
        <mxCell id="eJmABFCnZfUZqNpGIrpa-36" value="" style="endArrow=none;html=1;exitX=0.5;exitY=1;exitDx=0;exitDy=0;entryX=0.5;entryY=1;entryDx=0;entryDy=0;" parent="1" source="eJmABFCnZfUZqNpGIrpa-18" target="eJmABFCnZfUZqNpGIrpa-42" edge="1">
          <mxGeometry width="50" height="50" relative="1" as="geometry">
            <mxPoint x="704" y="778" as="sourcePoint" />
            <mxPoint x="862" y="788" as="targetPoint" />
            <Array as="points">
              <mxPoint x="709" y="788" />
              <mxPoint x="997" y="788" />
            </Array>
          </mxGeometry>
        </mxCell>
        <mxCell id="eJmABFCnZfUZqNpGIrpa-41" value="" style="endArrow=classic;html=1;entryX=0.5;entryY=0;entryDx=0;entryDy=0;exitX=0.5;exitY=1;exitDx=0;exitDy=0;" parent="1" source="eJmABFCnZfUZqNpGIrpa-20" target="DE4ma-u3AXPKQPY2vQ39-9" edge="1">
          <mxGeometry width="50" height="50" relative="1" as="geometry">
            <mxPoint x="855" y="798" as="sourcePoint" />
            <mxPoint x="782" y="958" as="targetPoint" />
          </mxGeometry>
        </mxCell>
        <mxCell id="eJmABFCnZfUZqNpGIrpa-42" value="If Else&lt;br&gt;Do Nothing" style="rhombus;whiteSpace=wrap;html=1;" parent="1" vertex="1">
          <mxGeometry x="942" y="668" width="110" height="100" as="geometry" />
        </mxCell>
        <mxCell id="eJmABFCnZfUZqNpGIrpa-43" value="" style="endArrow=classic;html=1;exitX=0.5;exitY=1;exitDx=0;exitDy=0;entryX=0.5;entryY=0;entryDx=0;entryDy=0;" parent="1" source="eJmABFCnZfUZqNpGIrpa-19" target="eJmABFCnZfUZqNpGIrpa-20" edge="1">
          <mxGeometry width="50" height="50" relative="1" as="geometry">
            <mxPoint x="910.231884057971" y="681.0289855072464" as="sourcePoint" />
            <mxPoint x="922" y="679" as="targetPoint" />
          </mxGeometry>
        </mxCell>
        <mxCell id="eJmABFCnZfUZqNpGIrpa-44" value="" style="endArrow=classic;html=1;exitX=1;exitY=0.5;exitDx=0;exitDy=0;entryX=0.5;entryY=0;entryDx=0;entryDy=0;" parent="1" source="eJmABFCnZfUZqNpGIrpa-19" target="eJmABFCnZfUZqNpGIrpa-42" edge="1">
          <mxGeometry width="50" height="50" relative="1" as="geometry">
            <mxPoint x="862" y="608" as="sourcePoint" />
            <mxPoint x="972" y="665" as="targetPoint" />
            <Array as="points">
              <mxPoint x="997" y="607" />
            </Array>
          </mxGeometry>
        </mxCell>
        <mxCell id="eJmABFCnZfUZqNpGIrpa-45" value="" style="endArrow=none;html=1;exitX=0.5;exitY=1;exitDx=0;exitDy=0;" parent="1" source="eJmABFCnZfUZqNpGIrpa-13" edge="1">
          <mxGeometry width="50" height="50" relative="1" as="geometry">
            <mxPoint x="752" y="1188" as="sourcePoint" />
            <mxPoint x="852" y="1198" as="targetPoint" />
            <Array as="points">
              <mxPoint x="729" y="1198" />
            </Array>
          </mxGeometry>
        </mxCell>
        <mxCell id="eJmABFCnZfUZqNpGIrpa-46" value="" style="endArrow=none;html=1;exitX=0.5;exitY=1;exitDx=0;exitDy=0;" parent="1" source="eJmABFCnZfUZqNpGIrpa-14" edge="1">
          <mxGeometry width="50" height="50" relative="1" as="geometry">
            <mxPoint x="972" y="1158" as="sourcePoint" />
            <mxPoint x="852" y="1198" as="targetPoint" />
            <Array as="points">
              <mxPoint x="969" y="1198" />
            </Array>
          </mxGeometry>
        </mxCell>
        <mxCell id="eJmABFCnZfUZqNpGIrpa-47" value="" style="endArrow=classic;html=1;entryX=1;entryY=0.5;entryDx=0;entryDy=0;" parent="1" target="DE4ma-u3AXPKQPY2vQ39-8" edge="1">
          <mxGeometry width="50" height="50" relative="1" as="geometry">
            <mxPoint x="852" y="1198" as="sourcePoint" />
            <mxPoint x="1162" y="458" as="targetPoint" />
            <Array as="points">
              <mxPoint x="852" y="1238" />
              <mxPoint x="1162" y="1238" />
              <mxPoint x="1162" y="478" />
            </Array>
          </mxGeometry>
        </mxCell>
        <mxCell id="eJmABFCnZfUZqNpGIrpa-48" value="" style="endArrow=classic;html=1;entryX=0.5;entryY=0;entryDx=0;entryDy=0;exitX=0.5;exitY=1;exitDx=0;exitDy=0;" parent="1" source="DE4ma-u3AXPKQPY2vQ39-8" target="eJmABFCnZfUZqNpGIrpa-19" edge="1">
          <mxGeometry width="50" height="50" relative="1" as="geometry">
            <mxPoint x="854" y="528" as="sourcePoint" />
            <mxPoint x="772" y="688" as="targetPoint" />
          </mxGeometry>
        </mxCell>
      </root>
    </mxGraphModel>
  </diagram>
</mxfile>
